<svg width="50" height="47" viewBox="0 0 50 47" fill="none" xmlns="http://www.w3.org/2000/svg">
<path fill-rule="evenodd" clip-rule="evenodd" d="M19.2208 14.2668C19.2206 14.2582 19.2205 14.2496 19.2205 14.241V12.506C19.2205 8.91284 22.0319 6 25.5 6C28.9682 6 31.7795 8.91284 31.7795 12.506V14.241C31.7795 14.2496 31.7794 14.2582 31.7792 14.2668C33.9348 14.3338 35.2538 14.5748 36.2607 15.4406C37.6559 16.6403 38.0233 18.6709 38.7585 22.7323L40.0144 29.672C41.0479 35.3829 41.5645 38.2383 40.0579 40.1192C38.5513 42 35.7473 42 30.1392 42H20.8608C15.2527 42 12.4487 42 10.9421 40.1192C9.43546 38.2383 9.95222 35.3829 10.9857 29.672L12.2416 22.7323C12.9766 18.6709 13.3441 16.6403 14.7393 15.4406C15.7462 14.5748 17.0652 14.3338 19.2208 14.2668ZM21.7323 12.506C21.7323 10.3501 23.4191 8.60241 25.5 8.60241C27.5808 8.60241 29.2677 10.3501 29.2677 12.506V14.241C29.2677 14.2409 29.2677 14.241 29.2677 14.241C29.1416 14.2409 29.0135 14.241 28.8833 14.241H22.1167C21.9865 14.241 21.8583 14.241 21.7323 14.241V12.506Z" fill="#FCFCFC"/>
</svg>
